HIERARCHY
ROOT Hips
{
  OFFSET 3.13124 94.3669 -3.18751
  CHANNELS  6 Xposition Yposition Zposition Zrotation Xrotation Yrotation
  JOINT LeftUpLeg
  {
    OFFSET 8.64259 1.95398 -2.38835
    CHANNELS 3 Zrotation Xrotation Yrotation
    JOINT LeftLeg
    {
      OFFSET 43.7702 0 0
      CHANNELS 3 Zrotation Xrotation Yrotation
      JOINT LeftFoot
      {
        OFFSET 40.6238 0 0
        CHANNELS 3 Zrotation Xrotation Yrotation
        JOINT LeftToeBase
        {
          OFFSET 12.7242 0 0
          CHANNELS 3 Zrotation Xrotation Yrotation
          End Site
          {
            OFFSET 0 0 0
          }
        }
      }
    }
  }
  JOINT RightUpLeg
  {
    OFFSET -8.2249 1.95398 -2.59336
    CHANNELS 3 Zrotation Xrotation Yrotation
    JOINT RightLeg
    {
      OFFSET 43.5653 0 0
      CHANNELS 3 Zrotation Xrotation Yrotation
      JOINT RightFoot
      {
        OFFSET 40.6238 0 0
        CHANNELS 3 Zrotation Xrotation Yrotation
        JOINT RightToeBase
        {
          OFFSET 12.7242 0 0
          CHANNELS 3 Zrotation Xrotation Yrotation
          End Site
          {
            OFFSET 0 0 0
          }
        }
      }
    }
  }
  JOINT Spine
  {
    OFFSET 0.165834 0.87714 6.61349
    CHANNELS 3 Zrotation Xrotation Yrotation
    JOINT Spine1
    {
      OFFSET 7.38962 1.71661e-005 0
      CHANNELS 3 Zrotation Xrotation Yrotation
      JOINT Spine2
      {
        OFFSET 11.9445 1.14441e-005 0
        CHANNELS 3 Zrotation Xrotation Yrotation
        JOINT Spine3
        {
          OFFSET 14.7254 4.19617e-005 0
          CHANNELS 3 Zrotation Xrotation Yrotation
          JOINT Spine4
          {
            OFFSET 10.9679 0 0
            CHANNELS 3 Zrotation Xrotation Yrotation
            JOINT RightShoulder
            {
              OFFSET 2.46616 -1.6653 3.69651
              CHANNELS 3 Zrotation Xrotation Yrotation
              JOINT RightArm
              {
                OFFSET 13.0012 0 0
                CHANNELS 3 Zrotation Xrotation Yrotation
                JOINT RightForeArm
                {
                  OFFSET 28.7848 1.52588e-005 0
                  CHANNELS 3 Zrotation Xrotation Yrotation
                  JOINT RightHand
                  {
                    OFFSET 26.5688 1.52588e-005 0
                    CHANNELS 3 Zrotation Xrotation Yrotation
                    End Site
                    {
                      OFFSET 0 0 0
                    }
                  }
                }
              }
            }
            JOINT LeftShoulder
            {
              OFFSET 2.38034 -1.29275 -3.75231
              CHANNELS 3 Zrotation Xrotation Yrotation
              JOINT LeftArm
              {
                OFFSET 16.3182 6.10352e-005 0
                CHANNELS 3 Zrotation Xrotation Yrotation
                JOINT LeftForeArm
                {
                  OFFSET 27.0901 0 0
                  CHANNELS 3 Zrotation Xrotation Yrotation
                  JOINT LeftHand
                  {
                    OFFSET 24.5451 1.52588e-005 0
                    CHANNELS 3 Zrotation Xrotation Yrotation
                    End Site
                    {
                      OFFSET 0 0 0
                    }
                  }
                }
              }
            }
            JOINT Neck
            {
              OFFSET 5.0226 -0.0266342 0
              CHANNELS 3 Zrotation Xrotation Yrotation
              JOINT Head
              {
                OFFSET 6.69363 2.86102e-005 0
                CHANNELS 3 Zrotation Xrotation Yrotation
                End Site
                {
                  OFFSET 0 0 0
                }
              }
            }
          }
        }
      }
    }
  }
}
MOTION
Frames:	7
Frame Time:	0.0333333
-12.593 91.4342 -8.76242 68.2726 -89.9987 68.3771 -167.588 3.856 93.8176 -10.0072 12.278 2.58735 63.8657 1.3724 0.715071 28.7808 3.67654e-006 5.72161e-006 176.956 2.27718 84.549 -7.78219 -3.07093 -0.182532 62.8191 -1.44372 -0.73267 28.7808 1.55674e-005 2.11505e-005 0.0079934 6.33974 -90.1008 14.1886 9.66961e-006 7.62555e-006 2.51764 2.73845e-006 -3.98856e-006 -20.0175 -6.13555e-006 -4.66484e-006 -0.00486409 -5.76763e-006 -6.8299e-006 101.336 -19.1834 -84.1835 -12.0688 30.3164 -6.02504 -7.78688 -30.2231 -11.3749 2.40214 0.157972 1.93526 -79.1068 -22.0161 94.0704 9.9649 -26.787 -2.74188 5.94094 26.802 -10.5684 -2.25426 -0.08389 2.0822 1.75393 -0.000473539 -0.00200834 -7.41135 0.000774639 0.00269515 
-12.5917 91.4321 -8.77814 -72.1925 -89.9702 -72.0879 -167.565 3.88232 93.8368 -10.021 12.3439 2.56705 63.8732 1.32922 0.690546 28.7808 3.67654e-006 5.72161e-006 176.966 2.35502 84.5502 -7.89493 -3.11653 -0.18254 62.8686 -1.41772 -0.718133 28.7808 1.55674e-005 2.11505e-005 0.00798297 6.33975 -90.1002 14.1886 9.71479e-006 7.53199e-006 2.51764 2.78625e-006 -3.98753e-006 -20.0175 -6.07647e-006 -4.66245e-006 -0.00486409 -5.76761e-006 -6.8299e-006 101.312 -19.2638 -84.1886 -12.1196 30.3321 -6.08952 -7.74015 -30.2135 -11.2862 2.42444 0.162523 2.04914 -79.0394 -21.9979 94.2313 9.82527 -26.9506 -2.09427 6.67618 26.893 -12.1115 -2.6765 -0.109065 2.60752 1.77995 -0.042569 -0.177224 -7.47277 0.067417 0.23811 
-12.5844 91.4354 -8.80335 -63.3151 -89.9487 -63.2063 -167.561 3.90921 93.8433 -10.017 12.2985 2.52656 63.8535 1.2532 0.647339 28.7808 3.67654e-006 5.72161e-006 176.954 2.30483 84.5536 -7.71633 -3.10608 -0.182538 62.7686 -1.39689 -0.704456 28.7808 1.55674e-005 2.11505e-005 0.00813808 6.3397 -90.103 14.1886 -0.000124115 0.000290742 2.51764 -0.000119938 0.000299897 -20.0175 -0.000206028 0.000232111 -0.00486409 -0.000211038 0.000218153 101.335 -19.2027 -84.1544 -12.1266 30.4623 -5.72962 -8.20731 -30.6221 -12.0807 2.84853 0.19809 2.3517 -78.9849 -22.0798 94.3444 9.82344 -26.8967 -2.29114 6.48857 26.9235 -11.6989 -2.60978 -0.104421 2.32135 1.78885 -0.028299 -0.0439432 -7.51632 0.0510751 0.0870381 
-12.5755 91.4395 -8.83409 -48.1416 -89.9354 -48.0169 -167.576 3.93417 93.8376 -9.98461 12.3212 2.55552 63.8275 1.30281 0.675741 28.7808 3.67654e-006 5.72161e-006 176.936 2.20965 84.565 -7.43286 -3.14492 -0.182545 62.5985 -1.40222 -0.704369 28.7808 1.55674e-005 2.11505e-005 -0.00212913 6.33981 -90.096 14.1886 -0.0162441 0.0259413 2.51764 -0.0150708 0.0266131 -20.0175 -0.0235037 0.0200458 -0.00485588 -0.0235197 0.0200005 101.321 -19.3231 -84.2108 -12.1605 30.2078 -6.29349 -7.42133 -30.2553 -10.6521 2.3283 0.149201 1.7708 -78.9239 -21.9787 94.4762 9.81926 -26.9147 -2.12491 6.58646 26.8424 -11.9402 -2.75968 -0.112833 2.10477 1.3992 0.00495873 -0.439288 -6.92365 0.0555458 0.481585 
-12.5623 91.4465 -8.87176 -30.4725 -89.9215 -30.335 -167.59 3.97364 93.8303 -9.96424 12.3332 2.56255 63.7905 1.3056 0.677447 28.7808 3.67654e-006 5.72161e-006 176.896 2.00178 84.5717 -6.9003 -3.16403 -0.182548 62.3145 -1.38315 -0.687566 28.7808 1.55674e-005 2.11505e-005 -0.00385017 6.33968 -90.1043 14.1887 -0.0208786 0.0251069 2.51772 -0.0197697 0.026004 -20.0174 -0.0274703 0.017722 -0.00478383 -0.0274785 0.017718 101.342 -19.259 -84.168 -12.1569 30.312 -5.99149 -7.74856 -30.2963 -11.2808 2.52497 0.163817 1.87303 -78.9103 -22.0328 94.5082 10.0279 -26.1768 -4.34086 4.07538 27.1864 -6.4207 -1.5219 -0.0605948 -0.308816 1.32046 0.00903715 -0.378257 -6.77468 0.0464984 0.389913 
-12.5517 91.4546 -8.91692 -11.4278 -89.9038 -11.2725 -167.603 4.01681 93.8302 -9.9239 12.3599 2.56673 63.738 1.29394 0.673224 28.7808 3.67654e-006 5.72161e-006 176.835 1.65711 84.5895 -6.06335 -3.17084 -0.18255 61.851 -1.36947 -0.670599 28.7808 1.55674e-005 2.11505e-005 -0.00383847 6.33957 -90.1156 14.1948 -0.0229518 0.0272794 2.52388 -0.0217346 0.0282514 -20.0113 -0.0301254 0.0191122 0.00136643 -0.03014 0.019075 101.345 -19.2064 -84.1588 -12.1571 30.2452 -6.03008 -7.61252 -30.2629 -11.0248 2.44346 0.157692 1.8329 -78.931 -21.9393 94.4556 9.87153 -26.863 -2.09538 6.46531 26.826 -11.6873 -2.85685 -0.116904 1.92656 1.34515 0.00620259 -0.369887 -6.84708 0.0579923 0.308681 
-12.5397 91.4573 -8.96272 -2.68303 -89.9078 -2.51038 -167.596 4.07569 93.8377 -9.97866 12.3712 2.55646 63.7292 1.29295 0.669756 28.7808 3.67654e-006 5.72161e-006 176.842 1.65425 84.5989 -6.01451 -3.15214 -0.182546 61.8102 -1.36779 -0.669949 28.7808 1.55674e-005 2.11505e-005 -0.0100548 6.34952 -90.1051 14.1749 -0.0314366 0.0407483 2.504 -0.0296049 0.0421069 -20.0311 -0.0422208 0.0294361 -0.0185019 -0.0422304 0.0294159 101.36 -19.2954 -84.1167 -12.2372 30.19 -6.15203 -7.41066 -30.2649 -10.6292 2.39293 0.147292 1.55154 -78.8979 -21.9001 94.5318 9.92998 -26.9702 -1.83141 6.75469 26.8454 -12.2985 -3.03678 -0.128221 2.12482 1.27572 -0.014561 -0.518359 -6.58805 0.0520061 0.343101 
